<?xml version="1.0" standalone="no"?>
<!DOCTYPE svg PUBLIC "-//W3C//DTD SVG 20010904//EN"
 "http://www.w3.org/TR/2001/REC-SVG-20010904/DTD/svg10.dtd">
<svg version="1.0" xmlns="http://www.w3.org/2000/svg"
 width="700.000000pt" height="700.000000pt" viewBox="0 0 700.000000 700.000000"
 preserveAspectRatio="xMidYMid meet">
<metadata>
Created by potrace 1.14, written by Peter Selinger 2001-2017
</metadata>
<g transform="translate(0.000000,700.000000) scale(0.100000,-0.100000)"
fill="#000000" stroke="none">
<path d="M3320 6989 c-515 -23 -1038 -170 -1494 -421 -336 -184 -679 -455
-921 -728 -511 -575 -810 -1254 -885 -2010 -15 -148 -15 -512 0 -660 101
-1015 622 -1918 1450 -2514 490 -353 1084 -575 1700 -636 148 -15 512 -15 660
0 1199 119 2240 828 2787 1900 194 380 319 811 363 1250 15 148 15 512 0 660
-106 1068 -674 2007 -1570 2595 -620 407 -1329 598 -2090 564z m545 -1324
c414 -66 790 -230 1100 -478 106 -85 275 -261 357 -370 318 -427 437 -961 327
-1472 -94 -440 -368 -856 -750 -1140 -90 -67 -222 -151 -296 -189 -17 -8 -123
-107 -235 -219 -261 -261 -504 -464 -775 -645 l-92 -62 -10 35 c-5 19 -35 167
-67 328 -32 160 -58 293 -59 294 -1 1 -46 7 -101 13 -704 75 -1305 427 -1658
972 -283 436 -369 991 -229 1478 146 511 528 961 1035 1220 278 142 519 212
878 254 81 10 480 -3 575 -19z"/>
<path d="M2557 3926 c-124 -46 -182 -182 -128 -302 32 -70 117 -124 196 -124
83 0 180 68 205 145 19 58 9 146 -23 194 -52 78 -167 118 -250 87z"/>
<path d="M3438 3928 c-58 -15 -123 -79 -143 -139 -73 -218 198 -386 358 -223
89 89 87 215 -3 305 -62 62 -128 80 -212 57z"/>
<path d="M4307 3926 c-124 -46 -182 -182 -128 -302 32 -70 117 -124 196 -124
83 0 180 68 205 145 19 58 9 146 -23 194 -52 78 -167 118 -250 87z"/>
</g>
</svg>
