<?xml version="1.0" encoding="iso-8859-1"?>
<!-- Generator: Adobe Illustrator 19.0.0, SVG Export Plug-In . SVG Version: 6.00 Build 0)  -->
<svg version="1.1" id="Capa_1" xmlns="http://www.w3.org/2000/svg" xmlns:xlink="http://www.w3.org/1999/xlink" x="0px" y="0px"
	 viewBox="0 0 512 512" style="enable-background:new 0 0 512 512;" xml:space="preserve">
<g>
	<g>
		<polygon points="490.648,42.024 469.477,20.853 435.15,55.179 400.823,20.853 379.653,42.024 413.978,76.351 379.653,110.678 
			400.823,131.849 435.15,97.523 469.477,131.849 490.648,110.678 456.322,76.351 		"/>
	</g>
</g>
<g>
	<g>
		<polygon points="131.349,401.322 110.179,380.152 75.852,414.477 41.525,380.152 20.354,401.322 54.68,435.649 20.354,469.976 
			41.525,491.147 75.852,456.821 110.179,491.147 131.349,469.976 97.023,435.649 		"/>
	</g>
</g>
<g>
	<g>
		<polygon points="490.648,221.673 469.477,200.502 435.15,234.828 400.823,200.502 379.653,221.673 413.978,256 379.653,290.327 
			400.823,311.498 435.15,277.172 469.477,311.498 490.648,290.327 456.322,256 		"/>
	</g>
</g>
<g>
	<g>
		<polygon points="310.999,401.322 289.828,380.152 255.501,414.477 221.174,380.152 200.003,401.322 234.329,435.649 
			200.003,469.976 221.174,491.147 255.501,456.821 289.828,491.147 310.999,469.976 276.673,435.649 		"/>
	</g>
</g>
<g>
	<g>
		<polygon points="131.349,221.673 110.179,200.502 75.852,234.828 41.525,200.502 20.354,221.673 54.68,256 20.354,290.327 
			41.525,311.498 75.852,277.172 110.179,311.498 131.349,290.327 97.023,256 		"/>
	</g>
</g>
<g>
	<g>
		<path d="M512,181.146v-29.942H360.296V0.499h-29.942v150.706H180.647V0.499h-29.942v150.706H0v29.942h150.706v149.708H0v29.942
			h150.706v150.706h29.942V360.795h149.708v150.706h29.942V360.795H512v-29.942H360.296V181.146H512z M330.355,330.854H180.647
			V181.146h149.708V330.854z"/>
	</g>
</g>
<g>
	<g>
		<path d="M75.852,16.468c-33.02,0-59.883,26.864-59.883,59.883c0,33.019,26.864,59.883,59.883,59.883
			c33.019,0,59.883-26.864,59.883-59.883C135.735,43.331,108.871,16.468,75.852,16.468z M75.852,106.292
			c-16.51,0-29.942-13.432-29.942-29.942s13.432-29.942,29.942-29.942s29.942,13.432,29.942,29.942S92.362,106.292,75.852,106.292z"
			/>
	</g>
</g>
<g>
	<g>
		<path d="M255.501,196.117c-33.019,0-59.883,26.864-59.883,59.883c0,33.019,26.864,59.883,59.883,59.883
			c33.019,0,59.883-26.864,59.883-59.883S288.52,196.117,255.501,196.117z M255.501,285.942c-16.51,0-29.942-13.432-29.942-29.942
			s13.432-29.942,29.942-29.942S285.443,239.49,285.443,256S272.011,285.942,255.501,285.942z"/>
	</g>
</g>
<g>
	<g>
		<path d="M255.501,16.468c-33.019,0-59.883,26.864-59.883,59.883c0,33.019,26.864,59.883,59.883,59.883
			c33.019,0,59.883-26.864,59.883-59.883C315.384,43.331,288.52,16.468,255.501,16.468z M255.501,106.292
			c-16.51,0-29.942-13.432-29.942-29.942s13.432-29.942,29.942-29.942s29.942,13.432,29.942,29.942S272.011,106.292,255.501,106.292
			z"/>
	</g>
</g>
<g>
	<g>
		<path d="M435.15,375.766c-33.019,0-59.883,26.864-59.883,59.883c0,33.02,26.864,59.883,59.883,59.883
			c33.02,0,59.883-26.864,59.883-59.883C495.033,402.63,468.17,375.766,435.15,375.766z M435.15,465.591
			c-16.51,0-29.942-13.432-29.942-29.942c0-16.51,13.432-29.942,29.942-29.942c16.51,0,29.942,13.432,29.942,29.942
			C465.092,452.159,451.66,465.591,435.15,465.591z"/>
	</g>
</g>
<g>
</g>
<g>
</g>
<g>
</g>
<g>
</g>
<g>
</g>
<g>
</g>
<g>
</g>
<g>
</g>
<g>
</g>
<g>
</g>
<g>
</g>
<g>
</g>
<g>
</g>
<g>
</g>
<g>
</g>
</svg>
